# xmcd
# 
# Track frame offsets:
#     150
#     19305
#     38403
#     55400
#     77620
#     96590
#     113500
#     133578
#     154870
#     176030
# 
# Disc length: 2593
# 
# Revision: 2
# Processed by: cddbd v1.5.2PL0 Copyright (c) Steve Scherf et al.
# Submitted via: fre:ac v1.0.31
# 
DISCID=7b0a1f0a
DTITLE=Various Artist - Chờ Nhau Kiếp Nào - Ngọc Lan - Trịnh Nam Sơn - Mây Productions
DYEAR=1991
DGENRE=Pop
TTITLE0=Ngọc Lan - Mùa Thu Chết - Phạm Duy
TTITLE1=Trịnh Nam Sơn - Nói Sao Em Hiểu - Lv Vũ Xuân Hùng - Kỳ Phát
TTITLE2=Ngọc Lan - Giã Từ Tình Yêu - Lv Kỳ Phát
TTITLE3=Ngọc Lan - Niềm Đau Chôn Dấu - Lv Lữ Liên
TTITLE4=Trịnh Nam Sơn - Hạnh Phúc Bên Nhau - Trịnh Nam Sơn
TTITLE5=Ngọc Lan - Kỷ Niệm Trong Tôi - Lê Đức Cường
TTITLE6=Trịnh Nam Sơn - Bài Không Tên Số 8 - Vũ Thành An
TTITLE7=Ngọc Lan - Một Trời Thương Yêu - Lv Nhật Ngân
TTITLE8=Trịnh Nam Sơn - Ngọn Đồi Chia Ly - Trịnh Nam Sơn
TTITLE9=Ngọc Lan - Đến Bên Em - Stand By Me - lv Kỳ Phát
EXTD=
EXTT0=
EXTT1=
EXTT2=
EXTT3=
EXTT4=
EXTT5=
EXTT6=
EXTT7=
EXTT8=
EXTT9=
PLAYORDER=
